 <svg height="48" viewBox="0 0 48 48" width="48" xmlns="http://www.w3.org/2000/svg"><g fill="none" fill-rule="evenodd"><path d="m47.063 24c0-.702-.043-1.394-.114-2.078a6.344 6.344 0 0 1 -1.867-.835c-.38.065-.763.1-1.113.1-1.774 0-3.524-.828-4.621-2.113a6.99 6.99 0 0 1 -1.81-.768c-.287.043-.58.069-.882.069a7.031 7.031 0 0 1 -7.031-7.031c0-.703.135-1.37.326-2.01-1.853-.919-3.139-3.093-3.139-5.303 0-.664.127-1.443.345-2.112-11.836.736-21.71 11.045-21.71 23.018 0 10.115 7.045 19.042 16.367 22.014.721.073 1.45.111 2.186.111 12.427 0 23.063-10.635 23.063-23.062z" fill="#8fa7ff" fill-rule="nonzero"/><path d="m35.25 32.438a2.812 2.812 0 1 1 -5.625 0 2.812 2.812 0 0 1 5.625 0zm-13.125-8.438a1.874 1.874 0 1 1 .001 3.749 1.874 1.874 0 0 1 -.001-3.749zm-.937-12.187a2.812 2.812 0 1 1 -5.625 0 2.812 2.812 0 0 1 5.624 0zm-4.688 21.562a2.812 2.812 0 1 1 -5.625 0 2.812 2.812 0 0 1 5.625 0z" fill="#8fa7ff" fill-rule="nonzero"/><g fill="#375de7"><path d="m36.188 24a.938.938 0 1 0 -1.876 0 .938.938 0 0 0 1.876 0zm-9.375-5.625a.938.938 0 1 0 -1.876 0 .938.938 0 0 0 1.875 0zm-2.813 18.75a.938.938 0 1 0 0 1.876.938.938 0 0 0 0-1.876zm-13.125-15.937a.938.938 0 1 0 -1.876 0 .938.938 0 0 0 1.876 0zm2.813 15.937a3.754 3.754 0 0 0 3.75-3.75 3.754 3.754 0 0 0 -3.75-3.75 3.754 3.754 0 0 0 -3.75 3.75 3.754 3.754 0 0 0 3.75 3.75zm0-5.625c1.033 0 1.874.841 1.874 1.875a1.877 1.877 0 0 1 -1.874 1.875 1.877 1.877 0 0 1 -1.876-1.875c0-1.034.842-1.875 1.876-1.875zm8.437-19.687a3.754 3.754 0 0 0 -3.75-3.75 3.754 3.754 0 0 0 -3.75 3.75 3.754 3.754 0 0 0 3.75 3.75 3.754 3.754 0 0 0 3.75-3.75zm-5.625 0c0-1.034.841-1.876 1.875-1.876s1.875.842 1.875 1.876a1.877 1.877 0 0 1 -1.875 1.874 1.877 1.877 0 0 1 -1.875-1.874zm12.188 20.625a3.754 3.754 0 0 0 3.75 3.75 3.754 3.754 0 0 0 3.75-3.75 3.754 3.754 0 0 0 -3.75-3.75 3.754 3.754 0 0 0 -3.75 3.75zm5.625 0a1.877 1.877 0 0 1 -1.876 1.874 1.877 1.877 0 0 1 -1.874-1.874c0-1.034.84-1.876 1.875-1.876 1.033 0 1.874.842 1.874 1.875zm-12.188-3.75a2.816 2.816 0 0 0 2.813-2.813 2.816 2.816 0 0 0 -2.813-2.813 2.816 2.816 0 0 0 -2.813 2.813 2.816 2.816 0 0 0 2.813 2.813zm0-3.75a.938.938 0 1 1 -.002 1.876.938.938 0 0 1 .002-1.877zm2.813 22.125a.937.937 0 1 1 -1.875 0 .937.937 0 0 1 1.875 0z"/><path d="m46.35 19.727c-.609.308-1.588.523-2.381.523-1.864 0-3.699-1.077-4.464-2.618a.938.938 0 0 0 -1.108-.482c-.656.196-1.209.288-1.74.288a6.1 6.1 0 0 1 -6.094-6.094c0-.532.09-1.085.287-1.74a.937.937 0 0 0 -.482-1.109c-1.541-.765-2.618-2.6-2.618-4.464 0-.793.215-1.772.523-2.38a.938.938 0 0 0 -.695-1.351c-1.335-.204-2.472-.3-3.578-.3-12.936 0-24 11.044-24 24 0 11.252 8.435 21.387 19.62 23.575a.938.938 0 0 0 .36-1.84c-10.32-2.02-18.104-11.363-18.104-21.735-.001-11.993 10.131-22.125 22.124-22.125.684 0 1.386.041 2.154.127a8.034 8.034 0 0 0 -.279 2.03c0 2.275 1.2 4.532 2.99 5.75a7.153 7.153 0 0 0 -.177 1.562c0 4.394 3.574 7.969 7.968 7.969.506 0 1.014-.058 1.561-.179 1.219 1.791 3.476 2.991 5.752 2.991.654 0 1.372-.103 2.03-.28.085.769.126 1.47.126 2.155 0 10.372-7.784 19.716-18.106 21.735a.937.937 0 1 0 .36 1.84c11.186-2.188 19.621-12.323 19.621-23.575 0-1.106-.096-2.243-.3-3.578a.938.938 0 0 0 -1.35-.695z"/></g></g></svg>