<?xml version="1.0" encoding="UTF-8"?>
<svg width="176px" height="48px" viewBox="0 0 176 48" version="1.1" xmlns="http://www.w3.org/2000/svg" xmlns:xlink="http://www.w3.org/1999/xlink">
    <!-- Generator: Sketch 51.3 (57544) - http://www.bohemiancoding.com/sketch -->
    <title>logo excelchat black</title>
    <desc>Created with Sketch.</desc>
    <defs></defs>
    <g id="logo-excelchat-black" stroke="none" stroke-width="1" fill="none" fill-rule="evenodd">
        <g id="Group" transform="translate(0.467486, 32.256518)" fill="#134AE1" fill-rule="nonzero">
            <path d="M5.93706922,9.88732394 C5.93706922,9.41983818 5.77344921,9.09259814 5.44620917,8.85885526 C5.11896913,8.60173809 4.55798622,8.36799521 3.71651184,8.11087803 C2.87503746,7.85376086 2.22055739,7.59664369 1.72969733,7.26940366 C0.771351513,6.66167216 0.327240036,5.91369494 0.327240036,4.9787234 C0.327240036,4.13724903 0.67785436,3.45939467 1.33233443,2.94516032 C2.03356308,2.40755169 2.87503746,2.15043452 3.97362901,2.15043452 C4.69823194,2.15043452 5.32933773,2.29068025 5.89032065,2.54779742 C6.45130357,2.80491459 6.89541504,3.17890321 7.22265508,3.66976326 C7.54989512,4.16062331 7.71351513,4.69823194 7.71351513,5.30596344 L5.93706922,5.30596344 C5.93706922,4.76835481 5.77344921,4.34761762 5.42283488,4.04375187 C5.07222056,3.71651184 4.5813605,3.57626611 3.9970033,3.57626611 C3.41264609,3.57626611 2.96853461,3.69313755 2.64129458,3.95025472 C2.31405454,4.20737189 2.15043452,4.55798622 2.15043452,4.9787234 C2.15043452,5.35271202 2.31405454,5.67995205 2.66466886,5.93706922 C3.01528319,6.19418639 3.57626611,6.42792928 4.3943662,6.68504645 C5.189092,6.91878933 5.82019778,7.19928079 6.31105784,7.47977225 C6.80191789,7.76026371 7.15253221,8.13425232 7.3862751,8.50824093 C7.62001798,8.90560384 7.73688942,9.3730896 7.73688942,9.88732394 C7.73688942,10.7521726 7.40964939,11.430027 6.75516931,11.920887 C6.10068924,12.4351214 5.21246629,12.6688642 4.09050045,12.6688642 C3.34252322,12.6688642 2.66466886,12.5286185 2.01018879,12.2715013 C1.37908301,12.0143842 0.888222955,11.6170213 0.537608631,11.1261612 C0.186994306,10.6353012 0.0233742883,10.050944 0.0233742883,9.41983818 L1.7998202,9.41983818 C1.7998202,10.0041954 2.01018879,10.4483069 2.3841774,10.7755469 C2.75816602,11.1027869 3.34252322,11.266407 4.04375187,11.266407 C4.67485766,11.266407 5.14234342,11.1495355 5.44620917,10.8924183 C5.77344921,10.6353012 5.93706922,10.3314354 5.93706922,9.88732394 Z" id="Shape"></path>
            <path d="M15.8243932,8.78873239 C15.8243932,9.95744681 15.567276,10.9157926 15.0296674,11.6403956 C14.4920587,12.3649985 13.7674558,12.7156128 12.8792328,12.7156128 C12.0377585,12.7156128 11.3599041,12.4351214 10.8690441,11.8741384 L10.8690441,15.4971531 L9.13934672,15.4971531 L9.13934672,4.88522625 L10.7287983,4.88522625 L10.7755469,5.65657776 C11.2897812,5.04884627 11.9442613,4.74498052 12.8558586,4.74498052 C13.8142044,4.74498052 14.515433,5.09559485 15.0764159,5.77344921 C15.5906503,6.47467785 15.8711417,7.43302367 15.8711417,8.67186095 L15.8711417,8.78873239 L15.8243932,8.78873239 Z M14.1414444,8.64848666 C14.1414444,7.87713515 14.0011987,7.26940366 13.6739586,6.84866647 C13.3467186,6.3811807 12.9259814,6.19418639 12.3883728,6.19418639 C11.6871441,6.19418639 11.1729098,6.47467785 10.8690441,7.05903506 L10.8690441,10.4483069 C11.1962841,11.0560384 11.7105184,11.3365298 12.3883728,11.3365298 C12.9259814,11.3365298 13.3700929,11.1027869 13.6739586,10.6820497 C14.0011987,10.2379383 14.1414444,9.53670962 14.1414444,8.64848666 Z" id="Shape"></path>
            <path d="M21.3173509,6.47467785 C21.083608,6.45130357 20.8498651,6.42792928 20.6161223,6.42792928 C19.8447708,6.42792928 19.2837878,6.75516931 19.0266707,7.33952652 L19.0266707,12.5753671 L17.2969733,12.5753671 L17.2969733,4.90860054 L18.9331735,4.90860054 L18.9565478,5.77344921 C19.3539107,5.11896913 19.9382679,4.76835481 20.6862451,4.76835481 C20.9433623,4.76835481 21.1537309,4.7917291 21.2939766,4.86185196 L21.3173509,6.47467785 Z" id="Shape"></path>
            <path d="M25.78184,12.7156128 C24.6832484,12.7156128 23.7950255,12.3649985 23.1405454,11.6871441 C22.4393168,10.9859155 22.135451,10.0743182 22.135451,8.95235241 L22.135451,8.74198382 C22.135451,7.9706323 22.2756967,7.31615223 22.5561882,6.70842074 C22.8366797,6.10068924 23.2807911,5.63320348 23.7950255,5.30596344 C24.3092598,4.95534912 24.9169913,4.7917291 25.5714714,4.7917291 C26.5999401,4.7917291 27.4180402,5.14234342 27.9790231,5.79682349 C28.5633803,6.45130357 28.8438717,7.40964939 28.8438717,8.62511238 L28.8438717,9.32634102 L23.841774,9.32634102 C23.8885226,9.95744681 24.0988912,10.4483069 24.4728798,10.8222955 C24.8468684,11.1962841 25.3143542,11.3599041 25.8753371,11.3599041 C26.6466886,11.3599041 27.3011687,11.0326641 27.7920288,10.4015583 L28.703626,11.2897812 C28.376386,11.757267 27.9790231,12.084507 27.4647887,12.3649985 C26.997303,12.5753671 26.4129458,12.7156128 25.78184,12.7156128 Z M25.5714714,6.12406353 C25.1039856,6.12406353 24.7066227,6.28768355 24.4261313,6.61492358 C24.1456398,6.94216362 23.9352712,7.40964939 23.8885226,7.99400659 L27.160923,7.99400659 L27.160923,7.87713515 C27.1375487,7.29277794 26.9505544,6.87204076 26.6934372,6.5915493 C26.4129458,6.28768355 26.0389571,6.12406353 25.5714714,6.12406353 Z" id="Shape"></path>
            <path d="M34.780941,12.5753671 C34.6874438,12.4351214 34.6406952,12.2013785 34.5705724,11.8507642 C34.0329637,12.4351214 33.3551094,12.7156128 32.5603836,12.7156128 C31.7890321,12.7156128 31.1579263,12.4818699 30.6670662,12.0611328 C30.1762062,11.6403956 29.9424633,11.0794126 29.9424633,10.4249326 C29.9424633,9.63020677 30.2697033,8.99910099 30.8540605,8.55498951 C31.461792,8.13425232 32.3266407,7.90050944 33.4719808,7.90050944 L34.5471981,7.90050944 L34.5471981,7.40964939 C34.5471981,7.01228648 34.4303266,6.68504645 34.1965838,6.45130357 C33.9628409,6.21756068 33.6589751,6.10068924 33.1914894,6.10068924 C32.7941265,6.10068924 32.4668864,6.19418639 32.2097693,6.3811807 C31.9526521,6.5915493 31.8357806,6.80191789 31.8357806,7.12915793 L30.1060833,7.12915793 C30.1060833,6.70842074 30.246329,6.33443212 30.5268205,5.96044351 C30.807312,5.5864549 31.1813006,5.30596344 31.6721606,5.09559485 C32.1630207,4.88522625 32.677255,4.76835481 33.2849865,4.76835481 C34.1732095,4.76835481 34.8978124,5.00209769 35.435421,5.46958346 C35.9730297,5.93706922 36.2301468,6.56817501 36.2768954,7.36290081 L36.2768954,10.8222955 C36.2768954,11.5235241 36.3703926,12.0611328 36.5573869,12.4584957 L36.5573869,12.5753671 L34.780941,12.5753671 Z M32.8876236,11.3365298 C33.2382379,11.3365298 33.5421037,11.2430327 33.8459694,11.0794126 C34.1498352,10.9157926 34.3602038,10.705424 34.5471981,10.4249326 L34.5471981,8.99910099 L33.6356008,8.99910099 C33.0044951,8.99910099 32.513635,9.11597243 32.2097693,9.34971531 C31.8825292,9.5834582 31.7189092,9.88732394 31.7189092,10.3080611 C31.7189092,10.6586755 31.8357806,10.9157926 32.0461492,11.0794126 C32.2331435,11.2196584 32.513635,11.3365298 32.8876236,11.3365298 Z" id="Shape"></path>
            <path d="M37.702727,8.69523524 C37.702727,7.52652083 37.9832185,6.56817501 38.5442014,5.84357207 C39.1051843,5.11896913 39.8297872,4.76835481 40.7647588,4.76835481 C41.5594846,4.76835481 42.2373389,5.04884627 42.728199,5.63320348 L42.728199,1.70632304 L44.4578963,1.70632304 L44.4578963,12.5753671 L42.9151933,12.5753671 L42.8216961,11.7806413 C42.3074618,12.4117471 41.6062331,12.7389871 40.7413845,12.7389871 C39.8531615,12.7389871 39.1285586,12.3649985 38.5675757,11.6403956 C38.0065927,10.8924183 37.702727,9.91069823 37.702727,8.69523524 Z M39.4324243,8.83548097 C39.4324243,9.60683248 39.5726701,10.214564 39.8999101,10.6353012 C40.1804016,11.0560384 40.624513,11.2897812 41.1621217,11.2897812 C41.8633503,11.2897812 42.3775847,10.9625412 42.7048247,10.3314354 L42.7048247,7.05903506 C42.3775847,6.45130357 41.8633503,6.14743782 41.185496,6.14743782 C40.6478873,6.14743782 40.2037758,6.3811807 39.8999101,6.80191789 C39.5726701,7.26940366 39.4324243,7.94725802 39.4324243,8.83548097 Z" id="Shape"></path>
            <path d="M50.5352113,10.4716812 C50.5352113,10.1444411 50.4183398,9.93407252 50.1612227,9.7704525 C49.9041055,9.60683248 49.5067426,9.44321247 48.8990111,9.34971531 C48.3146539,9.23284387 47.8237938,9.06922385 47.4264309,8.88222955 C46.5615823,8.48486665 46.1408451,7.87713515 46.1408451,7.08240935 C46.1408451,6.42792928 46.4213365,5.86694636 46.9823194,5.42283488 C47.5199281,5.00209769 48.244531,4.76835481 49.1093797,4.76835481 C50.0209769,4.76835481 50.7689542,5.00209769 51.3299371,5.46958346 C51.9142943,5.93706922 52.1714114,6.49805214 52.1714114,7.22265508 L50.4417141,7.22265508 C50.4417141,6.89541504 50.3248427,6.61492358 50.0677255,6.3811807 C49.8106083,6.14743782 49.4833683,6.05394067 49.0860054,6.05394067 C48.7120168,6.05394067 48.3847767,6.14743782 48.1744082,6.31105784 C47.9640396,6.47467785 47.8237938,6.70842074 47.8237938,7.01228648 C47.8237938,7.26940366 47.9406653,7.47977225 48.1744082,7.62001798 C48.408151,7.76026371 48.8288882,7.90050944 49.5301169,8.04075517 C50.2313455,8.1810009 50.7455799,8.36799521 51.1195685,8.55498951 C51.4935571,8.76535811 51.7740485,9.02247528 51.9844171,9.30296674 C52.1947857,9.5834582 52.2649086,9.93407252 52.2649086,10.3314354 C52.2649086,11.0326641 51.9844171,11.5702727 51.4000599,11.9910099 C50.8157027,12.4117471 50.0677255,12.6221157 49.1561283,12.6221157 C48.5250225,12.6221157 47.9874138,12.5052442 47.4965538,12.2715013 C47.0056937,12.0377585 46.6317051,11.7338927 46.3512137,11.3131555 C46.0707222,10.9157926 45.9538508,10.4716812 45.9538508,10.0275697 L47.6134252,10.0275697 C47.6367995,10.4249326 47.7770453,10.7521726 48.080911,10.9859155 C48.3614025,11.2196584 48.7353911,11.3131555 49.2028768,11.3131555 C49.6703626,11.3131555 49.9976026,11.2196584 50.2313455,11.0560384 C50.3949655,10.9859155 50.5352113,10.7521726 50.5352113,10.4716812 Z" id="Shape"></path>
            <path d="M55.4204375,5.72670063 C56.0047947,5.07222056 56.6826491,4.74498052 57.5474978,4.74498052 C59.1836979,4.74498052 60.0251723,5.65657776 60.0251723,7.52652083 L60.0251723,12.5286185 L58.295475,12.5286185 L58.295475,7.62001798 C58.295475,7.10578364 58.1786035,6.73179503 57.9448607,6.49805214 C57.7111178,6.26430926 57.3605034,6.17081211 56.9397663,6.17081211 C56.2385376,6.17081211 55.7243033,6.49805214 55.3970632,7.08240935 L55.3970632,12.5519928 L53.6673659,12.5519928 L53.6673659,1.68294876 L55.3970632,1.68294876 L55.3970632,5.70332634 L55.4204375,5.70332634 L55.4204375,5.72670063 Z" id="Shape"></path>
            <path d="M65.1441414,12.7156128 C64.0455499,12.7156128 63.1573269,12.3649985 62.5028469,11.6871441 C61.8016182,10.9859155 61.4977525,10.0743182 61.4977525,8.95235241 L61.4977525,8.74198382 C61.4977525,7.9706323 61.6379982,7.31615223 61.9184897,6.70842074 C62.1989811,6.10068924 62.6430926,5.63320348 63.1573269,5.30596344 C63.6715613,4.95534912 64.2792928,4.7917291 64.9337728,4.7917291 C65.9622415,4.7917291 66.7803416,5.14234342 67.3413245,5.79682349 C67.9256818,6.45130357 68.2061732,7.40964939 68.2061732,8.62511238 L68.2061732,9.32634102 L63.2040755,9.32634102 C63.2508241,9.95744681 63.4611927,10.4483069 63.8351813,10.8222955 C64.2091699,11.1962841 64.6766557,11.3599041 65.2376386,11.3599041 C66.0089901,11.3599041 66.6634702,11.0326641 67.1543302,10.4015583 L68.0659275,11.2897812 C67.7386874,11.757267 67.3413245,12.084507 66.8270902,12.3649985 C66.3362301,12.5753671 65.7752472,12.7156128 65.1441414,12.7156128 Z M64.9337728,6.12406353 C64.4662871,6.12406353 64.0689242,6.28768355 63.7884327,6.61492358 C63.5079413,6.94216362 63.2975727,7.40964939 63.2508241,7.99400659 L66.5232245,7.99400659 L66.5232245,7.87713515 C66.4998502,7.29277794 66.3128559,6.87204076 66.0557387,6.5915493 C65.7986215,6.28768355 65.4246329,6.12406353 64.9337728,6.12406353 Z" id="Shape"></path>
            <path d="M72.9277794,12.7156128 C71.8291879,12.7156128 70.9409649,12.3649985 70.2864849,11.6871441 C69.5852562,10.9859155 69.2813905,10.0743182 69.2813905,8.95235241 L69.2813905,8.74198382 C69.2813905,7.9706323 69.4216362,7.31615223 69.7021277,6.70842074 C69.9826191,6.10068924 70.4267306,5.63320348 70.9409649,5.30596344 C71.4551993,4.95534912 72.0629308,4.7917291 72.7174108,4.7917291 C73.7458795,4.7917291 74.5639796,5.14234342 75.1249625,5.79682349 C75.7093197,6.45130357 75.9898112,7.40964939 75.9898112,8.62511238 L75.9898112,9.32634102 L70.9877135,9.32634102 C71.0344621,9.95744681 71.2448307,10.4483069 71.6188193,10.8222955 C71.9928079,11.1962841 72.4602937,11.3599041 73.0212766,11.3599041 C73.7926281,11.3599041 74.4471082,11.0326641 74.9379682,10.4015583 L75.8495655,11.2897812 C75.5223254,11.757267 75.1249625,12.084507 74.6107282,12.3649985 C74.1432424,12.5753671 73.5588852,12.7156128 72.9277794,12.7156128 Z M72.7174108,6.12406353 C72.2499251,6.12406353 71.8525622,6.28768355 71.5720707,6.61492358 C71.2915793,6.94216362 71.0812107,7.40964939 71.0344621,7.99400659 L74.3068625,7.99400659 L74.3068625,7.87713515 C74.2834882,7.29277794 74.0964939,6.87204076 73.8393767,6.5915493 C73.5588852,6.28768355 73.1848966,6.12406353 72.7174108,6.12406353 Z" id="Shape"></path>
            <path d="M79.4725802,3.01528319 L79.4725802,4.88522625 L80.8282889,4.88522625 L80.8282889,6.14743782 L79.4725802,6.14743782 L79.4725802,10.4249326 C79.4725802,10.705424 79.5193287,10.9391669 79.6362002,11.0560384 C79.7530716,11.1962841 79.9634402,11.266407 80.267306,11.266407 C80.4776746,11.266407 80.6646689,11.2430327 80.8750375,11.2196584 L80.8750375,12.5519928 C80.4776746,12.6688642 80.1036859,12.7156128 79.7530716,12.7156128 C78.4207372,12.7156128 77.7662571,11.9910099 77.7662571,10.541804 L77.7662571,6.19418639 L76.5040455,6.19418639 L76.5040455,4.90860054 L77.7662571,4.90860054 L77.7662571,3.01528319 L79.4725802,3.01528319 Z" id="Shape"></path>
            <path d="M86.4614924,10.4716812 C86.4614924,10.1444411 86.3446209,9.93407252 86.0875037,9.7704525 C85.8303866,9.60683248 85.4330237,9.44321247 84.8252922,9.34971531 C84.240935,9.23284387 83.7500749,9.06922385 83.352712,8.88222955 C82.4878634,8.48486665 82.0671262,7.87713515 82.0671262,7.08240935 C82.0671262,6.42792928 82.3476176,5.86694636 82.9086005,5.42283488 C83.4462092,5.00209769 84.1708121,4.76835481 85.0356608,4.76835481 C85.947258,4.76835481 86.6952352,5.00209769 87.2562182,5.46958346 C87.8405754,5.93706922 88.0976925,6.49805214 88.0976925,7.22265508 L86.3679952,7.22265508 C86.3679952,6.89541504 86.2511238,6.61492358 85.9940066,6.3811807 C85.7368894,6.14743782 85.4096494,6.05394067 85.0122865,6.05394067 C84.6382979,6.05394067 84.3110578,6.14743782 84.1006892,6.31105784 C83.8669464,6.47467785 83.7500749,6.70842074 83.7500749,7.01228648 C83.7500749,7.26940366 83.8669464,7.47977225 84.1006892,7.62001798 C84.3344321,7.76026371 84.7551693,7.90050944 85.456398,8.04075517 C86.1576266,8.1810009 86.671861,8.36799521 87.0458496,8.55498951 C87.4198382,8.76535811 87.7003296,9.02247528 87.9106982,9.30296674 C88.1210668,9.5834582 88.1911897,9.93407252 88.1911897,10.3314354 C88.1911897,11.0326641 87.9106982,11.5702727 87.326341,11.9910099 C86.7419838,12.4117471 85.9940066,12.6221157 85.0824093,12.6221157 C84.4513036,12.6221157 83.9136949,12.5052442 83.4228349,12.2715013 C82.9319748,12.0377585 82.5579862,11.7338927 82.2774948,11.3131555 C81.9970033,10.8924183 81.8801319,10.4716812 81.8801319,10.0275697 L83.5397063,10.0275697 C83.5630806,10.4249326 83.7033263,10.7521726 84.0071921,10.9859155 C84.3110578,11.2196584 84.6616722,11.3131555 85.1291579,11.3131555 C85.5966437,11.3131555 85.9238837,11.2196584 86.1576266,11.0560384 C86.3212466,10.9859155 86.4614924,10.7521726 86.4614924,10.4716812 Z" id="Shape"></path>
            <path d="M98.5459994,10.4716812 C98.5459994,10.1444411 98.429128,9.93407252 98.1720108,9.7704525 C97.9148936,9.60683248 97.5175307,9.44321247 96.9097992,9.34971531 C96.325442,9.23284387 95.834582,9.06922385 95.4372191,8.88222955 C94.5723704,8.48486665 94.1516332,7.87713515 94.1516332,7.08240935 C94.1516332,6.42792928 94.4321247,5.86694636 94.9931076,5.42283488 C95.5307162,5.00209769 96.2553191,4.76835481 97.1201678,4.76835481 C98.0317651,4.76835481 98.7797423,5.00209769 99.3407252,5.46958346 C99.9250824,5.93706922 100.1822,6.49805214 100.1822,7.22265508 L98.4525022,7.22265508 C98.4525022,6.89541504 98.3356308,6.61492358 98.0785136,6.3811807 C97.8213965,6.14743782 97.4941564,6.05394067 97.0967935,6.05394067 C96.7228049,6.05394067 96.3955649,6.14743782 96.1851963,6.31105784 C95.9514534,6.47467785 95.834582,6.70842074 95.834582,7.01228648 C95.834582,7.26940366 95.9514534,7.47977225 96.1851963,7.62001798 C96.4189392,7.76026371 96.8396764,7.90050944 97.540905,8.04075517 C98.2421337,8.1810009 98.756368,8.36799521 99.1303566,8.55498951 C99.5043452,8.76535811 99.7848367,9.02247528 99.9952053,9.30296674 C100.205574,9.5834582 100.275697,9.93407252 100.275697,10.3314354 C100.275697,11.0326641 99.9952053,11.5702727 99.4108481,11.9910099 C98.8264909,12.4117471 98.0785136,12.6221157 97.1669164,12.6221157 C96.5358106,12.6221157 95.998202,12.5052442 95.5073419,12.2715013 C95.0164819,12.0377585 94.6424933,11.7338927 94.3620018,11.3131555 C94.0815103,10.8924183 93.9646389,10.4716812 93.9646389,10.0275697 L95.6242134,10.0275697 C95.6475877,10.4249326 95.7878334,10.7521726 96.0916991,10.9859155 C96.3955649,11.2196584 96.7461792,11.3131555 97.213665,11.3131555 C97.6811507,11.3131555 98.0083908,11.2196584 98.2421337,11.0560384 C98.4057537,10.9859155 98.5459994,10.7521726 98.5459994,10.4716812 Z" id="Shape"></path>
            <path d="M101.701528,8.64848666 C101.701528,7.90050944 101.841774,7.22265508 102.169014,6.61492358 C102.496254,6.00719209 102.893617,5.53970632 103.431226,5.23584058 C103.968834,4.90860054 104.576566,4.74498052 105.301169,4.74498052 C106.329637,4.74498052 107.171112,5.09559485 107.825592,5.75007492 C108.480072,6.40455499 108.830686,7.29277794 108.854061,8.39136949 L108.854061,8.78873239 C108.854061,9.53670962 108.713815,10.214564 108.433323,10.7989212 C108.152832,11.4066527 107.70872,11.8741384 107.194486,12.1780042 C106.656877,12.5052442 106.025772,12.6688642 105.324543,12.6688642 C104.225951,12.6688642 103.361103,12.2948756 102.729997,11.5702727 C102.075517,10.8456698 101.748277,9.91069823 101.748277,8.69523524 L101.748277,8.64848666 L101.701528,8.64848666 Z M103.407851,8.78873239 C103.407851,9.56008391 103.571471,10.1911897 103.898711,10.6353012 C104.225951,11.1027869 104.670063,11.2897812 105.25442,11.2897812 C105.838777,11.2897812 106.282889,11.0560384 106.610129,10.5885526 C106.937369,10.1210668 107.100989,9.46658675 107.100989,8.60173809 C107.100989,7.83038657 106.937369,7.22265508 106.610129,6.75516931 C106.259515,6.28768355 105.838777,6.05394067 105.25442,6.05394067 C104.670063,6.05394067 104.249326,6.28768355 103.898711,6.70842074 C103.571471,7.24602937 103.407851,7.90050944 103.407851,8.78873239 Z" id="Shape"></path>
            <polygon id="Shape" points="112.103087 12.5753671 110.373389 12.5753671 110.373389 1.70632304 112.103087 1.70632304"></polygon>
            <polygon id="Shape" points="116.684447 10.378184 118.297273 4.88522625 120.073719 4.88522625 117.432424 12.5519928 115.93647 12.5519928 113.271801 4.88522625 115.048247 4.88522625"></polygon>
            <path d="M124.538208,12.7156128 C123.439616,12.7156128 122.551393,12.3649985 121.896913,11.6871441 C121.195685,10.9859155 120.891819,10.0743182 120.891819,8.95235241 L120.891819,8.74198382 C120.891819,7.9706323 121.032065,7.31615223 121.312556,6.70842074 C121.593048,6.10068924 122.037159,5.63320348 122.551393,5.30596344 C123.065628,4.95534912 123.673359,4.7917291 124.327839,4.7917291 C125.356308,4.7917291 126.174408,5.14234342 126.735391,5.79682349 C127.296374,6.45130357 127.60024,7.40964939 127.60024,8.62511238 L127.60024,9.32634102 L122.598142,9.32634102 C122.644891,9.95744681 122.855259,10.4483069 123.229248,10.8222955 C123.603236,11.1962841 124.070722,11.3599041 124.631705,11.3599041 C125.403057,11.3599041 126.057537,11.0326641 126.548397,10.4015583 L127.459994,11.2897812 C127.132754,11.757267 126.735391,12.084507 126.221157,12.3649985 C125.730297,12.5753671 125.169314,12.7156128 124.538208,12.7156128 Z M124.327839,6.12406353 C123.860354,6.12406353 123.462991,6.28768355 123.182499,6.61492358 C122.902008,6.94216362 122.691639,7.40964939 122.644891,7.99400659 L125.917291,7.99400659 L125.917291,7.87713515 C125.893917,7.29277794 125.706922,6.87204076 125.449805,6.5915493 C125.169314,6.28768355 124.795325,6.12406353 124.327839,6.12406353 Z" id="Shape"></path>
            <path d="M128.605334,8.69523524 C128.605334,7.52652083 128.885826,6.56817501 129.446809,5.84357207 C129.984417,5.11896913 130.732394,4.76835481 131.667366,4.76835481 C132.462092,4.76835481 133.139946,5.04884627 133.630806,5.63320348 L133.630806,1.70632304 L135.360503,1.70632304 L135.360503,12.5753671 L133.8178,12.5753671 L133.724303,11.7806413 C133.210069,12.4117471 132.50884,12.7389871 131.643992,12.7389871 C130.755769,12.7389871 130.031166,12.3649985 129.470183,11.6403956 C128.9092,10.8924183 128.605334,9.91069823 128.605334,8.69523524 Z M130.335031,8.83548097 C130.335031,9.60683248 130.475277,10.214564 130.802517,10.6353012 C131.083009,11.0560384 131.52712,11.2897812 132.064729,11.2897812 C132.765957,11.2897812 133.280192,10.9625412 133.607432,10.3314354 L133.607432,7.05903506 C133.280192,6.45130357 132.765957,6.14743782 132.088103,6.14743782 C131.550494,6.14743782 131.106383,6.3811807 130.802517,6.80191789 C130.475277,7.26940366 130.335031,7.94725802 130.335031,8.83548097 Z" id="Shape"></path>
            <polygon id="Shape" points="142.676656 12.6221157 140.222355 10.0976925 149.875936 0.163620018 159.459395 10.0041954 157.005094 12.5519928 149.875936 5.23584058"></polygon>
        </g>
        <path d="M120.400959,27.8855259 L116.380581,27.8855259 L116.380581,0.0467485766 L120.284088,0.0467485766 L120.284088,10.5885526 C121.452802,8.78873239 123.766856,7.5732694 126.525022,7.5732694 C128.698831,7.5732694 130.498651,8.25112376 131.994606,9.70032964 C133.49056,11.1261612 134.215163,13.1597243 134.215163,15.8243932 L134.215163,27.8621516 L130.194786,27.8621516 L130.194786,16.9931076 C130.194786,13.3467186 128.301468,11.3599041 125.496554,11.3599041 C122.457896,11.3599041 120.377585,13.6505844 120.377585,17.0632304 L120.400959,27.8855259 Z M103.735091,28.3296374 C100.696434,28.3296374 98.1720108,27.3712916 96.2553191,25.4312257 C94.3152532,23.4911597 93.3335331,21.0134852 93.3335331,18.0215763 C93.3335331,14.9829188 94.3152532,12.5286185 96.2786934,10.5651783 C98.2421337,8.62511238 100.766557,7.64339227 103.851963,7.64339227 C107.802218,7.64339227 111.331735,9.67695535 112.921187,12.9259814 L109.602038,14.7959245 C108.386575,12.7156128 106.23614,11.3365298 103.898711,11.3365298 C102.028768,11.3365298 100.486065,11.9676356 99.2238538,13.2532215 C97.9850165,14.5388073 97.3539107,16.1282589 97.3539107,18.0215763 C97.3539107,19.8915193 97.9850165,21.4342224 99.1771052,22.7198082 C100.392568,24.0053941 101.911897,24.6364999 103.758466,24.6364999 C106.095895,24.6364999 108.456698,23.2106683 109.485166,21.2706023 L112.804315,23.2106683 C111.214864,26.2727 107.685346,28.3296374 103.735091,28.3296374 Z M89.3131555,0.0467485766 L89.3131555,27.8621516 L85.2927779,27.8621516 L85.2927779,0.0467485766 L89.3131555,0.0467485766 Z M71.7123165,11.1027869 C68.673659,11.1027869 66.4297273,13.1597243 65.8219958,16.2451304 L77.2987714,16.2451304 C76.9715313,13.13635 74.6574768,11.1027869 71.7123165,11.1027869 Z M81.3425232,17.6008391 C81.3425232,18.1384477 81.3191489,18.8163021 81.2022775,19.540905 L65.8453701,19.540905 C66.4297273,22.6263111 68.5801618,24.7066227 72.3901708,24.7066227 C74.6107282,24.7066227 77.3221456,23.8651483 79.0752173,22.5795625 L80.7347917,25.5714714 C78.7479772,27.0674258 75.569074,28.3296374 72.2265508,28.3296374 C64.86365,28.3296374 61.6847468,23.1639197 61.6847468,17.9514534 C61.6847468,14.9595445 62.596344,12.5286185 64.4429128,10.5651783 C66.3128559,8.62511238 68.7437818,7.64339227 71.6889422,7.64339227 C74.517231,7.64339227 76.8312856,8.50824093 78.6077315,10.3314354 C80.430926,12.084507 81.3425232,14.515433 81.3425232,17.6008391 Z M50.1378484,28.3296374 C47.0991909,28.3296374 44.5747678,27.3712916 42.6580761,25.4312257 C40.7180102,23.4677854 39.7362901,21.0134852 39.7362901,17.998202 C39.7362901,14.9595445 40.7180102,12.5052442 42.6814504,10.541804 C44.6448906,8.5783638 47.1693138,7.62001798 50.2547198,7.62001798 C54.2049745,7.62001798 57.7344921,9.65358106 59.3239437,12.9026071 L56.0047947,14.7725502 C54.7893317,12.6922385 52.6388972,11.3131555 50.3014684,11.3131555 C48.4315253,11.3131555 46.8888223,11.9442613 45.6266107,13.2298472 C44.3877734,14.515433 43.7566677,16.1048846 43.7566677,17.998202 C43.7566677,19.868145 44.3877734,21.4108481 45.5798622,22.6964339 C46.7953251,23.9820198 48.3146539,24.6131256 50.1612227,24.6131256 C52.4986515,24.6131256 54.8594546,23.187294 55.8879233,21.247228 L59.2070722,23.187294 C57.6176206,26.2727 54.0881031,28.3296374 50.1378484,28.3296374 Z M31.2747977,17.8813305 L37.866347,27.8621516 L33.1914894,27.8621516 L28.7737489,20.756368 L24.2625112,27.8621516 L19.4707821,27.8621516 L26.2493257,17.6475877 L20.1486365,8.06412946 L24.8234942,8.06412946 L28.8438717,14.7491759 L33.0044951,8.06412946 L37.6793527,8.06412946 L31.2747977,17.8813305 Z M17.273599,27.8855259 L0,27.8855259 L0,0.771351513 L17.2268505,0.771351513 L17.2268505,4.76835481 L4.1839976,4.76835481 L4.1839976,12.1546299 L16.2451304,12.1546299 L16.2451304,16.1516332 L4.1839976,16.1516332 L4.1839976,23.8885226 L17.273599,23.8885226 L17.273599,27.8855259 Z" id="Shape" fill="#000000" fill-rule="nonzero"></path>
        <path d="M170.44531,22.299071 L170.44531,10.9391669 L175.774648,10.9391669 L175.774648,6.9889122 L170.44531,6.9889122 L170.44531,0.0467485766 L166.541804,0.0467485766 L166.541804,6.9889122 L163.339527,6.9889122 L163.339527,10.9391669 L166.541804,10.9391669 L166.541804,22.299071 C166.541804,25.6415942 169.229847,28.3530117 172.57237,28.3530117 L175.774648,28.3530117 L175.774648,24.402757 L172.548996,24.402757 C171.356907,24.402757 170.44531,23.4677854 170.44531,22.299071" id="Shape" fill="#000000" fill-rule="nonzero"></path>
        <path d="M154.924783,8.08750375 L154.924783,10.8456698 C153.148337,8.67186095 150.881031,7.62001798 148.216362,7.62001798 C145.388073,7.62001798 143.050644,8.5783638 141.180701,10.5184297 C139.310758,12.4584957 138.422535,14.8894216 138.422535,17.8579562 C138.422535,20.8498651 139.334132,23.3275397 141.180701,25.3611028 C143.050644,27.3946659 145.434822,28.376386 148.216362,28.376386 C150.881031,28.376386 153.148337,27.3011687 154.924783,25.1741085 L154.924783,27.8855259 L158.78154,27.8855259 L158.78154,8.08750375 L154.924783,8.08750375 Z M153.311957,22.7198082 C152.096494,24.0053941 150.600539,24.6598741 148.730596,24.6598741 C146.860653,24.6598741 145.341325,24.0287684 144.149236,22.7431825 C142.980521,21.4575966 142.396164,19.868145 142.396164,17.998202 C142.396164,16.1282589 142.980521,14.5388073 144.149236,13.2532215 C145.31795,11.9676356 146.860653,11.3131555 148.730596,11.3131555 C150.600539,11.3131555 152.096494,11.9676356 153.311957,13.2532215 C154.52742,14.5388073 155.088403,16.1282589 155.088403,17.9514534 C155.111777,19.8447708 154.504046,21.4342224 153.311957,22.7198082 Z" id="Shape" fill="#000000" fill-rule="nonzero"></path>
    </g>
</svg>